<?xml version="1.0" encoding="utf-8"?>
<!-- Generator: Adobe Illustrator 26.0.1, SVG Export Plug-In . SVG Version: 6.00 Build 0)  -->
<svg version="1.1" id="games" xmlns="http://www.w3.org/2000/svg" xmlns:xlink="http://www.w3.org/1999/xlink" x="0px" y="0px"
	 viewBox="0 0 600.5 201.25" style="enable-background:new 0 0 600.5 201.25;" xml:space="preserve">
<style type="text/css">
	.st0{fill:none;}
	.st1{fill:#ED1C24;stroke:#000000;stroke-width:0.5;stroke-miterlimit:10;}
	.st2{fill:#FFFFFF;stroke:#000000;stroke-miterlimit:10;}
	.st3{fill:#BD0000;}
</style>
<rect class="st0" width="600" height="200"/>
<path id="img_x5F_container" class="st1" d="M181,201H21c-11.05,0-20-8.95-20-20V21C1,9.95,9.95,1,21,1h160c11.05,0,20,8.95,20,20
	v160C201,192.05,192.05,201,181,201z"/>
<path class="st2" d="M580,182H201V22h379c11.05,0,20,8.95,20,20v120C600,173.05,591.05,182,580,182z"/>
<path class="st3" d="M576,177H201V27h375c11.05,0,20,8.95,20,20v110C596,168.05,587.05,177,576,177z"/>
<path id="shadow_x5F_container" class="st3" d="M541.62,177h32.12c0,0,20.26,2,22.26-20l-0.32-113.54c0,0-2.8-15.46-18.24-16.46
	S584.24,169,541.62,177z"/>
<rect id="text_x5F_container" x="201.5" y="26.5" class="st3" width="340" height="151"/>
</svg>
