<?xml version="1.0" encoding="utf-8"?>
<!-- Generator: Adobe Illustrator 26.0.1, SVG Export Plug-In . SVG Version: 6.00 Build 0)  -->
<svg version="1.1" id="Layer_1" xmlns="http://www.w3.org/2000/svg" xmlns:xlink="http://www.w3.org/1999/xlink" x="0px" y="0px"
	 viewBox="0 0 362.54 362.54" style="enable-background:new 0 0 362.54 362.54;" xml:space="preserve">
<style type="text/css">
	.st0{fill:#FFFFFF;}
	.st1{fill:#FF0000;}
	.st2{opacity:0.2;}
</style>
<path id="wrapper" class="st0" d="M352.04,362.04H10.5c-5.52,0-10-4.48-10-10V10.5c0-5.52,4.48-10,10-10h341.54
	c5.52,0,10,4.48,10,10v341.54C362.04,357.56,357.56,362.04,352.04,362.04z"/>
<path id="container_00000073717055901443484520000012620668108039788427_" class="st1" d="M347.04,354.03H16.5
	c-5.52,0-10-4.48-10-10V13.49c0-5.52,4.48-10,10-10h330.54c5.52,0,10,4.48,10,10v330.54C357.04,349.55,352.56,354.03,347.04,354.03z
	"/>
<path id="shadow" class="st2" d="M261.53,3.49h72.19h11.24c0,0,12.08-2,12.08,11.41s0,13.41,0,13.41V222.2
	c0,0-7.37-229.63-141.96-218.81L261.53,3.49z"/>
<g id="elements">
	
		<image style="overflow:visible;" width="512" height="512" xlink:href="C:\Users\hp\Downloads\school.png"  transform="matrix(0.2461 0 0 0.2461 5.5 181.776)">
	</image>
	
		<image style="overflow:visible;" width="511" height="232" xlink:href="160F6C72.png"  transform="matrix(0.6899 0 0 0.4102 4.5 279.2964)">
	</image>
	
		<image style="overflow:visible;" width="512" height="512" xlink:href="C:\Users\hp\Downloads\pylon.png"  transform="matrix(0.1084 0 0 0.1084 264.0181 243.7371)">
	</image>
	
		<image style="overflow:visible;" width="512" height="512" xlink:href="C:\Users\hp\Downloads\pylon.png"  transform="matrix(0.1084 0 0 0.1084 167.0792 244.7715)">
	</image>
	
		<image style="overflow:visible;" width="512" height="512" xlink:href="C:\Users\hp\Downloads\car.png"  transform="matrix(-0.1689 0 0 0.1689 350.4887 252.1443)">
	</image>
	
		<image style="overflow:visible;" width="507" height="300" xlink:href="160F6C73.png"  transform="matrix(0.1689 0 0 0.1689 109.871 292.0919)">
	</image>
	
		<image style="overflow:visible;" width="216" height="454" xlink:href="160F6C7D.png"  transform="matrix(0.1093 0 0 0.1093 83.212 264.2964)">
	</image>
</g>
</svg>
