<?xml version="1.0" encoding="utf-8"?>
<!-- Generator: Adobe Illustrator 26.0.1, SVG Export Plug-In . SVG Version: 6.00 Build 0)  -->
<svg version="1.1" id="Layer_2" xmlns="http://www.w3.org/2000/svg" xmlns:xlink="http://www.w3.org/1999/xlink" x="0px" y="0px"
	 viewBox="0 0 361.54 361.54" style="enable-background:new 0 0 361.54 361.54;" xml:space="preserve">
<style type="text/css">
	.st0{fill:none;}
	.st1{fill:#E6C896;}
	.st2{opacity:0.4;}
	.st3{opacity:0.7;fill:#FFFFFF;}
</style>
<rect x="0.5" y="0.5" class="st0" width="360.54" height="360.54"/>
<g id="egg">
	<path id="body" class="st1" d="M69.22,104.22c0,0,28.71-55.53,36.71-62.12c0,0,33.88-35.76,54.12-39.06c0,0,25.41-9.41,62.12,8.94
		c0,0,42.35,28.71,60.24,70.59c0,0,34.82,53.65,32.94,149.18s-77.65,118.59-77.65,118.59s-50.82,20.24-98.82,4.71
		c0,0-48.47-10.35-77.18-61.65c0,0-25.41-49.41-11.29-123.29c2.48-9.73,4.96-19.46,7.44-29.18
		C61.63,128.69,65.42,116.45,69.22,104.22z"/>
	<path id="shadowbottom" class="st2" d="M315.33,210.57c-2.32,18.72-9.22,50.19-32.46,79.06c-58.78,73.02-163.9,57.19-169.65,56.24
		c23.83,11.09,44.78,14.02,57.63,14.85c12.86,0.83,46.63,2.58,81.23-16.81c11.5-6.45,19.97-13.46,25.42-18.51
		c5.25-5.11,12.12-12.72,18.53-23.07c9.47-15.31,13.06-28.78,15.18-37.02C314.25,253.52,317.66,234.49,315.33,210.57z"/>
	<circle id="shadowtop" class="st3" cx="126.49" cy="83.37" r="22.09"/>
</g>
</svg>
